<mxfile host="app.diagrams.net" agent="Mozilla/5.0 (Windows NT 10.0; Win64; x64) AppleWebKit/537.36 (KHTML, like Gecko) Chrome/140.0.0.0 Safari/537.36 Edg/140.0.0.0" version="26.0.16">
  <diagram name="Page-1" id="9f46799a-70d6-7492-0946-bef42562c5a5">
    <mxGraphModel dx="4091" dy="1720" grid="1" gridSize="10" guides="1" tooltips="1" connect="1" arrows="1" fold="1" page="1" pageScale="1" pageWidth="1100" pageHeight="850" background="none" math="0" shadow="0">
      <root>
        <mxCell id="0" />
        <mxCell id="1" parent="0" />
        <mxCell id="t3Ei1sCSYDdTLTPBaEXb-14" style="edgeStyle=orthogonalEdgeStyle;rounded=0;orthogonalLoop=1;jettySize=auto;html=1;entryX=0;entryY=0.5;entryDx=0;entryDy=0;dashed=1;" edge="1" parent="1" source="78961159f06e98e8-17" target="78961159f06e98e8-109">
          <mxGeometry relative="1" as="geometry" />
        </mxCell>
        <mxCell id="t3Ei1sCSYDdTLTPBaEXb-19" style="edgeStyle=orthogonalEdgeStyle;rounded=0;orthogonalLoop=1;jettySize=auto;html=1;" edge="1" parent="1" source="78961159f06e98e8-17" target="78961159f06e98e8-30">
          <mxGeometry relative="1" as="geometry" />
        </mxCell>
        <mxCell id="78961159f06e98e8-17" value="Home page" style="swimlane;html=1;fontStyle=1;align=center;verticalAlign=top;childLayout=stackLayout;horizontal=1;startSize=26;horizontalStack=0;resizeParent=1;resizeLast=0;collapsible=1;marginBottom=0;swimlaneFillColor=#ffffff;rounded=0;shadow=0;comic=0;labelBackgroundColor=none;strokeWidth=1;fillColor=none;fontFamily=Verdana;fontSize=12" parent="1" vertex="1">
          <mxGeometry x="-1060" y="90" width="160" height="60" as="geometry" />
        </mxCell>
        <mxCell id="t3Ei1sCSYDdTLTPBaEXb-2" value="+ New Deal" style="text;html=1;strokeColor=none;fillColor=none;align=left;verticalAlign=top;spacingLeft=4;spacingRight=4;whiteSpace=wrap;overflow=hidden;rotatable=0;points=[[0,0.5],[1,0.5]];portConstraint=eastwest;" vertex="1" parent="78961159f06e98e8-17">
          <mxGeometry y="26" width="160" height="26" as="geometry" />
        </mxCell>
        <mxCell id="78961159f06e98e8-30" value="Step 1" style="swimlane;html=1;fontStyle=1;align=center;verticalAlign=top;childLayout=stackLayout;horizontal=1;startSize=26;horizontalStack=0;resizeParent=1;resizeLast=0;collapsible=1;marginBottom=0;swimlaneFillColor=#ffffff;rounded=0;shadow=0;comic=0;labelBackgroundColor=none;strokeWidth=1;fillColor=none;fontFamily=Verdana;fontSize=12" parent="1" vertex="1">
          <mxGeometry x="-1060" y="260" width="160" height="60" as="geometry" />
        </mxCell>
        <mxCell id="78961159f06e98e8-31" value="+ Intended Product Use" style="text;html=1;strokeColor=none;fillColor=none;align=left;verticalAlign=top;spacingLeft=4;spacingRight=4;whiteSpace=wrap;overflow=hidden;rotatable=0;points=[[0,0.5],[1,0.5]];portConstraint=eastwest;" parent="78961159f06e98e8-30" vertex="1">
          <mxGeometry y="26" width="160" height="26" as="geometry" />
        </mxCell>
        <mxCell id="78961159f06e98e8-108" value="ent_ProjectRegistration" style="swimlane;html=1;fontStyle=1;align=center;verticalAlign=top;childLayout=stackLayout;horizontal=1;startSize=26;horizontalStack=0;resizeParent=1;resizeLast=0;collapsible=1;marginBottom=0;swimlaneFillColor=#ffffff;rounded=0;shadow=0;comic=0;labelBackgroundColor=none;strokeWidth=1;fillColor=none;fontFamily=Verdana;fontSize=12" parent="1" vertex="1">
          <mxGeometry x="-820" y="90" width="270" height="100" as="geometry" />
        </mxCell>
        <mxCell id="78961159f06e98e8-109" value="+ Primary key" style="text;html=1;strokeColor=none;fillColor=none;align=left;verticalAlign=top;spacingLeft=4;spacingRight=4;whiteSpace=wrap;overflow=hidden;rotatable=0;points=[[0,0.5],[1,0.5]];portConstraint=eastwest;" parent="78961159f06e98e8-108" vertex="1">
          <mxGeometry y="26" width="270" height="26" as="geometry" />
        </mxCell>
        <mxCell id="78961159f06e98e8-116" value="" style="line;html=1;strokeWidth=1;fillColor=none;align=left;verticalAlign=middle;spacingTop=-1;spacingLeft=3;spacingRight=3;rotatable=0;labelPosition=right;points=[];portConstraint=eastwest;" parent="78961159f06e98e8-108" vertex="1">
          <mxGeometry y="52" width="270" height="8" as="geometry" />
        </mxCell>
        <mxCell id="78961159f06e98e8-117" value="+ method(type):&amp;nbsp;ent_ProjectRegistrationId&lt;br&gt;&lt;span style=&quot;white-space: pre;&quot;&gt;&#x9;&lt;/span&gt;- Ned Deal" style="text;html=1;strokeColor=none;fillColor=none;align=left;verticalAlign=top;spacingLeft=4;spacingRight=4;whiteSpace=wrap;overflow=hidden;rotatable=0;points=[[0,0.5],[1,0.5]];portConstraint=eastwest;" parent="78961159f06e98e8-108" vertex="1">
          <mxGeometry y="60" width="270" height="40" as="geometry" />
        </mxCell>
        <mxCell id="t3Ei1sCSYDdTLTPBaEXb-1" value="UI Enterprise SKU Sales Approval" style="rounded=0;whiteSpace=wrap;html=1;" vertex="1" parent="1">
          <mxGeometry x="-1060" width="1080" height="60" as="geometry" />
        </mxCell>
        <mxCell id="t3Ei1sCSYDdTLTPBaEXb-96" style="edgeStyle=orthogonalEdgeStyle;rounded=0;orthogonalLoop=1;jettySize=auto;html=1;dashed=1;" edge="1" parent="1" source="t3Ei1sCSYDdTLTPBaEXb-4" target="t3Ei1sCSYDdTLTPBaEXb-22">
          <mxGeometry relative="1" as="geometry" />
        </mxCell>
        <mxCell id="t3Ei1sCSYDdTLTPBaEXb-4" value="Step 2" style="swimlane;html=1;fontStyle=1;align=center;verticalAlign=top;childLayout=stackLayout;horizontal=1;startSize=26;horizontalStack=0;resizeParent=1;resizeLast=0;collapsible=1;marginBottom=0;swimlaneFillColor=#ffffff;rounded=0;shadow=0;comic=0;labelBackgroundColor=none;strokeWidth=1;fillColor=none;fontFamily=Verdana;fontSize=12" vertex="1" parent="1">
          <mxGeometry x="-1070" y="460" width="160" height="60" as="geometry" />
        </mxCell>
        <mxCell id="t3Ei1sCSYDdTLTPBaEXb-5" value="+&amp;nbsp;Seller Information" style="text;html=1;strokeColor=none;fillColor=none;align=left;verticalAlign=top;spacingLeft=4;spacingRight=4;whiteSpace=wrap;overflow=hidden;rotatable=0;points=[[0,0.5],[1,0.5]];portConstraint=eastwest;" vertex="1" parent="t3Ei1sCSYDdTLTPBaEXb-4">
          <mxGeometry y="26" width="160" height="26" as="geometry" />
        </mxCell>
        <mxCell id="t3Ei1sCSYDdTLTPBaEXb-6" value="Step 3" style="swimlane;html=1;fontStyle=1;align=center;verticalAlign=top;childLayout=stackLayout;horizontal=1;startSize=26;horizontalStack=0;resizeParent=1;resizeLast=0;collapsible=1;marginBottom=0;swimlaneFillColor=#ffffff;rounded=0;shadow=0;comic=0;labelBackgroundColor=none;strokeWidth=1;fillColor=none;fontFamily=Verdana;fontSize=12" vertex="1" parent="1">
          <mxGeometry x="-1060" y="1190" width="160" height="60" as="geometry" />
        </mxCell>
        <mxCell id="t3Ei1sCSYDdTLTPBaEXb-7" value="+&amp;nbsp;End-User Information" style="text;html=1;strokeColor=none;fillColor=none;align=left;verticalAlign=top;spacingLeft=4;spacingRight=4;whiteSpace=wrap;overflow=hidden;rotatable=0;points=[[0,0.5],[1,0.5]];portConstraint=eastwest;" vertex="1" parent="t3Ei1sCSYDdTLTPBaEXb-6">
          <mxGeometry y="26" width="160" height="26" as="geometry" />
        </mxCell>
        <mxCell id="t3Ei1sCSYDdTLTPBaEXb-100" style="edgeStyle=orthogonalEdgeStyle;rounded=0;orthogonalLoop=1;jettySize=auto;html=1;dashed=1;" edge="1" parent="1" source="t3Ei1sCSYDdTLTPBaEXb-8" target="t3Ei1sCSYDdTLTPBaEXb-80">
          <mxGeometry relative="1" as="geometry" />
        </mxCell>
        <mxCell id="t3Ei1sCSYDdTLTPBaEXb-8" value="Step 4" style="swimlane;html=1;fontStyle=1;align=center;verticalAlign=top;childLayout=stackLayout;horizontal=1;startSize=26;horizontalStack=0;resizeParent=1;resizeLast=0;collapsible=1;marginBottom=0;swimlaneFillColor=#ffffff;rounded=0;shadow=0;comic=0;labelBackgroundColor=none;strokeWidth=1;fillColor=none;fontFamily=Verdana;fontSize=12" vertex="1" parent="1">
          <mxGeometry x="-1090" y="1790" width="160" height="70" as="geometry" />
        </mxCell>
        <mxCell id="t3Ei1sCSYDdTLTPBaEXb-9" value="+&amp;nbsp;Deal Registration (multi-line, Enterprise SKUs)" style="text;html=1;strokeColor=none;fillColor=none;align=left;verticalAlign=top;spacingLeft=4;spacingRight=4;whiteSpace=wrap;overflow=hidden;rotatable=0;points=[[0,0.5],[1,0.5]];portConstraint=eastwest;" vertex="1" parent="t3Ei1sCSYDdTLTPBaEXb-8">
          <mxGeometry y="26" width="160" height="44" as="geometry" />
        </mxCell>
        <mxCell id="t3Ei1sCSYDdTLTPBaEXb-10" value="Step 5" style="swimlane;html=1;fontStyle=1;align=center;verticalAlign=top;childLayout=stackLayout;horizontal=1;startSize=26;horizontalStack=0;resizeParent=1;resizeLast=0;collapsible=1;marginBottom=0;swimlaneFillColor=#ffffff;rounded=0;shadow=0;comic=0;labelBackgroundColor=none;strokeWidth=1;fillColor=none;fontFamily=Verdana;fontSize=12" vertex="1" parent="1">
          <mxGeometry x="-745" y="2230" width="160" height="70" as="geometry" />
        </mxCell>
        <mxCell id="t3Ei1sCSYDdTLTPBaEXb-11" value="+&amp;nbsp;Summary &amp;amp; Submit" style="text;html=1;strokeColor=none;fillColor=none;align=left;verticalAlign=top;spacingLeft=4;spacingRight=4;whiteSpace=wrap;overflow=hidden;rotatable=0;points=[[0,0.5],[1,0.5]];portConstraint=eastwest;" vertex="1" parent="t3Ei1sCSYDdTLTPBaEXb-10">
          <mxGeometry y="26" width="160" height="24" as="geometry" />
        </mxCell>
        <mxCell id="t3Ei1sCSYDdTLTPBaEXb-15" value="ent_IntendedProductUse" style="swimlane;html=1;fontStyle=1;align=center;verticalAlign=top;childLayout=stackLayout;horizontal=1;startSize=26;horizontalStack=0;resizeParent=1;resizeLast=0;collapsible=1;marginBottom=0;swimlaneFillColor=#ffffff;rounded=0;shadow=0;comic=0;labelBackgroundColor=none;strokeWidth=1;fillColor=none;fontFamily=Verdana;fontSize=12" vertex="1" parent="1">
          <mxGeometry x="-830" y="260" width="270" height="110" as="geometry" />
        </mxCell>
        <mxCell id="t3Ei1sCSYDdTLTPBaEXb-16" value="+&amp;nbsp;Choice, required" style="text;html=1;strokeColor=none;fillColor=none;align=left;verticalAlign=top;spacingLeft=4;spacingRight=4;whiteSpace=wrap;overflow=hidden;rotatable=0;points=[[0,0.5],[1,0.5]];portConstraint=eastwest;" vertex="1" parent="t3Ei1sCSYDdTLTPBaEXb-15">
          <mxGeometry y="26" width="270" height="26" as="geometry" />
        </mxCell>
        <mxCell id="t3Ei1sCSYDdTLTPBaEXb-17" value="" style="line;html=1;strokeWidth=1;fillColor=none;align=left;verticalAlign=middle;spacingTop=-1;spacingLeft=3;spacingRight=3;rotatable=0;labelPosition=right;points=[];portConstraint=eastwest;" vertex="1" parent="t3Ei1sCSYDdTLTPBaEXb-15">
          <mxGeometry y="52" width="270" height="8" as="geometry" />
        </mxCell>
        <mxCell id="t3Ei1sCSYDdTLTPBaEXb-18" value="Installation and Managed Services; Installation Only; Internal Use; Lab Setup" style="text;html=1;strokeColor=none;fillColor=none;align=left;verticalAlign=top;spacingLeft=4;spacingRight=4;whiteSpace=wrap;overflow=hidden;rotatable=0;points=[[0,0.5],[1,0.5]];portConstraint=eastwest;" vertex="1" parent="t3Ei1sCSYDdTLTPBaEXb-15">
          <mxGeometry y="60" width="270" height="50" as="geometry" />
        </mxCell>
        <mxCell id="t3Ei1sCSYDdTLTPBaEXb-20" style="edgeStyle=orthogonalEdgeStyle;rounded=0;orthogonalLoop=1;jettySize=auto;html=1;exitX=1;exitY=0.5;exitDx=0;exitDy=0;dashed=1;" edge="1" parent="1" source="78961159f06e98e8-31" target="t3Ei1sCSYDdTLTPBaEXb-15">
          <mxGeometry relative="1" as="geometry" />
        </mxCell>
        <mxCell id="t3Ei1sCSYDdTLTPBaEXb-97" style="edgeStyle=orthogonalEdgeStyle;rounded=0;orthogonalLoop=1;jettySize=auto;html=1;entryX=0.5;entryY=0;entryDx=0;entryDy=0;" edge="1" parent="1" source="t3Ei1sCSYDdTLTPBaEXb-22" target="t3Ei1sCSYDdTLTPBaEXb-6">
          <mxGeometry relative="1" as="geometry">
            <Array as="points">
              <mxPoint x="-610" y="1120" />
              <mxPoint x="-980" y="1120" />
            </Array>
          </mxGeometry>
        </mxCell>
        <mxCell id="t3Ei1sCSYDdTLTPBaEXb-22" value="ent_SellerInformation" style="swimlane;html=1;fontStyle=1;align=center;verticalAlign=top;childLayout=stackLayout;horizontal=1;startSize=26;horizontalStack=0;resizeParent=1;resizeLast=0;collapsible=1;marginBottom=0;swimlaneFillColor=#ffffff;rounded=0;shadow=0;comic=0;labelBackgroundColor=none;strokeWidth=1;fillColor=none;fontFamily=Verdana;fontSize=12" vertex="1" parent="1">
          <mxGeometry x="-790" y="456" width="360" height="594" as="geometry" />
        </mxCell>
        <mxCell id="t3Ei1sCSYDdTLTPBaEXb-23" value="+ ent_Seller_CompanyName&lt;br&gt;&lt;span style=&quot;white-space: pre;&quot;&gt;&#x9;&lt;/span&gt;- Text, 100, required" style="text;html=1;strokeColor=none;fillColor=none;align=left;verticalAlign=top;spacingLeft=4;spacingRight=4;whiteSpace=wrap;overflow=hidden;rotatable=0;points=[[0,0.5],[1,0.5]];portConstraint=eastwest;" vertex="1" parent="t3Ei1sCSYDdTLTPBaEXb-22">
          <mxGeometry y="26" width="360" height="44" as="geometry" />
        </mxCell>
        <mxCell id="t3Ei1sCSYDdTLTPBaEXb-25" value="+&amp;nbsp;ent_Seller_Website;&lt;br&gt;&lt;span style=&quot;white-space: pre;&quot;&gt;&#x9;&lt;/span&gt;- Text/URL, required, must with https:www." style="text;html=1;strokeColor=none;fillColor=none;align=left;verticalAlign=top;spacingLeft=4;spacingRight=4;whiteSpace=wrap;overflow=hidden;rotatable=0;points=[[0,0.5],[1,0.5]];portConstraint=eastwest;" vertex="1" parent="t3Ei1sCSYDdTLTPBaEXb-22">
          <mxGeometry y="70" width="360" height="40" as="geometry" />
        </mxCell>
        <mxCell id="t3Ei1sCSYDdTLTPBaEXb-34" value="+&amp;nbsp;ent_Seller_Country&lt;br&gt;&lt;span style=&quot;white-space: pre;&quot;&gt;&#x9;&lt;/span&gt;- Text or Country choice, required" style="text;html=1;strokeColor=none;fillColor=none;align=left;verticalAlign=top;spacingLeft=4;spacingRight=4;whiteSpace=wrap;overflow=hidden;rotatable=0;points=[[0,0.5],[1,0.5]];portConstraint=eastwest;" vertex="1" parent="t3Ei1sCSYDdTLTPBaEXb-22">
          <mxGeometry y="110" width="360" height="40" as="geometry" />
        </mxCell>
        <mxCell id="t3Ei1sCSYDdTLTPBaEXb-26" value="+ ent_Seller_Street&lt;br&gt;&lt;span style=&quot;white-space: pre;&quot;&gt;&#x9;&lt;/span&gt;- Text, 200, required" style="text;html=1;strokeColor=none;fillColor=none;align=left;verticalAlign=top;spacingLeft=4;spacingRight=4;whiteSpace=wrap;overflow=hidden;rotatable=0;points=[[0,0.5],[1,0.5]];portConstraint=eastwest;" vertex="1" parent="t3Ei1sCSYDdTLTPBaEXb-22">
          <mxGeometry y="150" width="360" height="40" as="geometry" />
        </mxCell>
        <mxCell id="t3Ei1sCSYDdTLTPBaEXb-35" value="+&amp;nbsp;ent_Seller_State&lt;br&gt;&lt;span style=&quot;white-space: pre;&quot;&gt;&#x9;&lt;/span&gt;- Text, 100, required" style="text;html=1;strokeColor=none;fillColor=none;align=left;verticalAlign=top;spacingLeft=4;spacingRight=4;whiteSpace=wrap;overflow=hidden;rotatable=0;points=[[0,0.5],[1,0.5]];portConstraint=eastwest;" vertex="1" parent="t3Ei1sCSYDdTLTPBaEXb-22">
          <mxGeometry y="190" width="360" height="40" as="geometry" />
        </mxCell>
        <mxCell id="t3Ei1sCSYDdTLTPBaEXb-37" value="+&amp;nbsp;ent_Seller_City&lt;br&gt;&lt;span style=&quot;white-space: pre;&quot;&gt;&#x9;&lt;/span&gt;- Text, 100, required" style="text;html=1;strokeColor=none;fillColor=none;align=left;verticalAlign=top;spacingLeft=4;spacingRight=4;whiteSpace=wrap;overflow=hidden;rotatable=0;points=[[0,0.5],[1,0.5]];portConstraint=eastwest;" vertex="1" parent="t3Ei1sCSYDdTLTPBaEXb-22">
          <mxGeometry y="230" width="360" height="40" as="geometry" />
        </mxCell>
        <mxCell id="t3Ei1sCSYDdTLTPBaEXb-38" value="+&amp;nbsp;ent_Seller_PostalCode&lt;br&gt;&lt;span style=&quot;white-space: pre;&quot;&gt;&#x9;&lt;/span&gt;- Text, 20, required" style="text;html=1;strokeColor=none;fillColor=none;align=left;verticalAlign=top;spacingLeft=4;spacingRight=4;whiteSpace=wrap;overflow=hidden;rotatable=0;points=[[0,0.5],[1,0.5]];portConstraint=eastwest;" vertex="1" parent="t3Ei1sCSYDdTLTPBaEXb-22">
          <mxGeometry y="270" width="360" height="40" as="geometry" />
        </mxCell>
        <mxCell id="t3Ei1sCSYDdTLTPBaEXb-39" value="+&amp;nbsp;ent_Seller_TotalEmployees&lt;br&gt;&lt;span style=&quot;white-space: pre;&quot;&gt;&#x9;&lt;/span&gt;-&amp;nbsp;(Choice, required): 1–5; 6–10; 11–50; 51–100; 101–300; 300+" style="text;html=1;strokeColor=none;fillColor=none;align=left;verticalAlign=top;spacingLeft=4;spacingRight=4;whiteSpace=wrap;overflow=hidden;rotatable=0;points=[[0,0.5],[1,0.5]];portConstraint=eastwest;" vertex="1" parent="t3Ei1sCSYDdTLTPBaEXb-22">
          <mxGeometry y="310" width="360" height="50" as="geometry" />
        </mxCell>
        <mxCell id="t3Ei1sCSYDdTLTPBaEXb-40" value="+&amp;nbsp;ent_Seller_CompanyOfferings&lt;br&gt;&lt;span style=&quot;white-space: pre;&quot;&gt;&#x9;&lt;/span&gt;- (Choice, required): Managed Service Provider; System Integrator; Other&lt;br&gt;&lt;span style=&quot;white-space: pre;&quot;&gt;&#x9;&lt;/span&gt;+&amp;nbsp;ent_Seller_CompanyOfferingsOther&lt;br&gt;&lt;span style=&quot;white-space: pre;&quot;&gt;&#x9;&lt;/span&gt;&lt;span style=&quot;white-space: pre;&quot;&gt;&#x9;&lt;/span&gt;-&amp;nbsp;(Text, 250, conditionally required if “Other”)" style="text;html=1;strokeColor=none;fillColor=none;align=left;verticalAlign=top;spacingLeft=4;spacingRight=4;whiteSpace=wrap;overflow=hidden;rotatable=0;points=[[0,0.5],[1,0.5]];portConstraint=eastwest;" vertex="1" parent="t3Ei1sCSYDdTLTPBaEXb-22">
          <mxGeometry y="360" width="360" height="90" as="geometry" />
        </mxCell>
        <mxCell id="t3Ei1sCSYDdTLTPBaEXb-41" value="+&amp;nbsp;ent_Seller_ContactName&lt;br&gt;&lt;span style=&quot;white-space: pre;&quot;&gt;&#x9;&lt;/span&gt;- Text, 150, required" style="text;html=1;strokeColor=none;fillColor=none;align=left;verticalAlign=top;spacingLeft=4;spacingRight=4;whiteSpace=wrap;overflow=hidden;rotatable=0;points=[[0,0.5],[1,0.5]];portConstraint=eastwest;" vertex="1" parent="t3Ei1sCSYDdTLTPBaEXb-22">
          <mxGeometry y="450" width="360" height="40" as="geometry" />
        </mxCell>
        <mxCell id="t3Ei1sCSYDdTLTPBaEXb-42" value="+&amp;nbsp;ent_Seller_ContactPhone&lt;br&gt;&lt;span style=&quot;white-space: pre;&quot;&gt;&#x9;&lt;/span&gt;- Text, 30, required, regex ^\+\d{6,15}$" style="text;html=1;strokeColor=none;fillColor=none;align=left;verticalAlign=top;spacingLeft=4;spacingRight=4;whiteSpace=wrap;overflow=hidden;rotatable=0;points=[[0,0.5],[1,0.5]];portConstraint=eastwest;" vertex="1" parent="t3Ei1sCSYDdTLTPBaEXb-22">
          <mxGeometry y="490" width="360" height="40" as="geometry" />
        </mxCell>
        <mxCell id="t3Ei1sCSYDdTLTPBaEXb-43" value="+&amp;nbsp;ent_Seller_ContactEmail&lt;br&gt;&lt;span style=&quot;white-space: pre;&quot;&gt;&#x9;&lt;/span&gt;- Email, required" style="text;html=1;strokeColor=none;fillColor=none;align=left;verticalAlign=top;spacingLeft=4;spacingRight=4;whiteSpace=wrap;overflow=hidden;rotatable=0;points=[[0,0.5],[1,0.5]];portConstraint=eastwest;" vertex="1" parent="t3Ei1sCSYDdTLTPBaEXb-22">
          <mxGeometry y="530" width="360" height="40" as="geometry" />
        </mxCell>
        <mxCell id="t3Ei1sCSYDdTLTPBaEXb-99" style="edgeStyle=orthogonalEdgeStyle;rounded=0;orthogonalLoop=1;jettySize=auto;html=1;entryX=0.5;entryY=0;entryDx=0;entryDy=0;" edge="1" parent="1" source="t3Ei1sCSYDdTLTPBaEXb-44" target="t3Ei1sCSYDdTLTPBaEXb-8">
          <mxGeometry relative="1" as="geometry">
            <Array as="points">
              <mxPoint x="-610" y="1710" />
              <mxPoint x="-1010" y="1710" />
            </Array>
          </mxGeometry>
        </mxCell>
        <mxCell id="t3Ei1sCSYDdTLTPBaEXb-44" value="ent_EndUserInformation" style="swimlane;html=1;fontStyle=1;align=center;verticalAlign=top;childLayout=stackLayout;horizontal=1;startSize=26;horizontalStack=0;resizeParent=1;resizeLast=0;collapsible=1;marginBottom=0;swimlaneFillColor=#ffffff;rounded=0;shadow=0;comic=0;labelBackgroundColor=none;strokeWidth=1;fillColor=none;fontFamily=Verdana;fontSize=12" vertex="1" parent="1">
          <mxGeometry x="-790" y="1190" width="360" height="440" as="geometry" />
        </mxCell>
        <mxCell id="t3Ei1sCSYDdTLTPBaEXb-45" value="+ ent_EndUser_CompanyName&lt;br&gt;&lt;span style=&quot;white-space: pre;&quot;&gt;&#x9;&lt;/span&gt;- Text, 100, required" style="text;html=1;strokeColor=none;fillColor=none;align=left;verticalAlign=top;spacingLeft=4;spacingRight=4;whiteSpace=wrap;overflow=hidden;rotatable=0;points=[[0,0.5],[1,0.5]];portConstraint=eastwest;" vertex="1" parent="t3Ei1sCSYDdTLTPBaEXb-44">
          <mxGeometry y="26" width="360" height="44" as="geometry" />
        </mxCell>
        <mxCell id="t3Ei1sCSYDdTLTPBaEXb-46" value="+&amp;nbsp;ent_EndUser_Website;&lt;br&gt;&lt;span style=&quot;white-space: pre;&quot;&gt;&#x9;&lt;/span&gt;- Text/URL, required, must with https:www." style="text;html=1;strokeColor=none;fillColor=none;align=left;verticalAlign=top;spacingLeft=4;spacingRight=4;whiteSpace=wrap;overflow=hidden;rotatable=0;points=[[0,0.5],[1,0.5]];portConstraint=eastwest;" vertex="1" parent="t3Ei1sCSYDdTLTPBaEXb-44">
          <mxGeometry y="70" width="360" height="40" as="geometry" />
        </mxCell>
        <mxCell id="t3Ei1sCSYDdTLTPBaEXb-47" value="+&amp;nbsp;ent_EndUser_Country&lt;br&gt;&lt;span style=&quot;white-space: pre;&quot;&gt;&#x9;&lt;/span&gt;- Text or Country choice, required" style="text;html=1;strokeColor=none;fillColor=none;align=left;verticalAlign=top;spacingLeft=4;spacingRight=4;whiteSpace=wrap;overflow=hidden;rotatable=0;points=[[0,0.5],[1,0.5]];portConstraint=eastwest;" vertex="1" parent="t3Ei1sCSYDdTLTPBaEXb-44">
          <mxGeometry y="110" width="360" height="40" as="geometry" />
        </mxCell>
        <mxCell id="t3Ei1sCSYDdTLTPBaEXb-48" value="+ ent_EndUser_Street&lt;br&gt;&lt;span style=&quot;white-space: pre;&quot;&gt;&#x9;&lt;/span&gt;- Text, 200, required" style="text;html=1;strokeColor=none;fillColor=none;align=left;verticalAlign=top;spacingLeft=4;spacingRight=4;whiteSpace=wrap;overflow=hidden;rotatable=0;points=[[0,0.5],[1,0.5]];portConstraint=eastwest;" vertex="1" parent="t3Ei1sCSYDdTLTPBaEXb-44">
          <mxGeometry y="150" width="360" height="40" as="geometry" />
        </mxCell>
        <mxCell id="t3Ei1sCSYDdTLTPBaEXb-49" value="+&amp;nbsp;ent_EndUser_State&lt;br&gt;&lt;span style=&quot;white-space: pre;&quot;&gt;&#x9;&lt;/span&gt;- Text, 100, required" style="text;html=1;strokeColor=none;fillColor=none;align=left;verticalAlign=top;spacingLeft=4;spacingRight=4;whiteSpace=wrap;overflow=hidden;rotatable=0;points=[[0,0.5],[1,0.5]];portConstraint=eastwest;" vertex="1" parent="t3Ei1sCSYDdTLTPBaEXb-44">
          <mxGeometry y="190" width="360" height="40" as="geometry" />
        </mxCell>
        <mxCell id="t3Ei1sCSYDdTLTPBaEXb-50" value="+&amp;nbsp;ent_EndUser_City&lt;br&gt;&lt;span style=&quot;white-space: pre;&quot;&gt;&#x9;&lt;/span&gt;- Text, 100, required" style="text;html=1;strokeColor=none;fillColor=none;align=left;verticalAlign=top;spacingLeft=4;spacingRight=4;whiteSpace=wrap;overflow=hidden;rotatable=0;points=[[0,0.5],[1,0.5]];portConstraint=eastwest;" vertex="1" parent="t3Ei1sCSYDdTLTPBaEXb-44">
          <mxGeometry y="230" width="360" height="40" as="geometry" />
        </mxCell>
        <mxCell id="t3Ei1sCSYDdTLTPBaEXb-51" value="+&amp;nbsp;ent_EndUser_PostalCode&lt;br&gt;&lt;span style=&quot;white-space: pre;&quot;&gt;&#x9;&lt;/span&gt;- Text, 20, required" style="text;html=1;strokeColor=none;fillColor=none;align=left;verticalAlign=top;spacingLeft=4;spacingRight=4;whiteSpace=wrap;overflow=hidden;rotatable=0;points=[[0,0.5],[1,0.5]];portConstraint=eastwest;" vertex="1" parent="t3Ei1sCSYDdTLTPBaEXb-44">
          <mxGeometry y="270" width="360" height="40" as="geometry" />
        </mxCell>
        <mxCell id="t3Ei1sCSYDdTLTPBaEXb-54" value="+&amp;nbsp;ent_EndUser_City&lt;br&gt;&lt;span style=&quot;white-space: pre;&quot;&gt;&#x9;&lt;/span&gt;- Text, 150, required" style="text;html=1;strokeColor=none;fillColor=none;align=left;verticalAlign=top;spacingLeft=4;spacingRight=4;whiteSpace=wrap;overflow=hidden;rotatable=0;points=[[0,0.5],[1,0.5]];portConstraint=eastwest;" vertex="1" parent="t3Ei1sCSYDdTLTPBaEXb-44">
          <mxGeometry y="310" width="360" height="40" as="geometry" />
        </mxCell>
        <mxCell id="t3Ei1sCSYDdTLTPBaEXb-55" value="+&amp;nbsp;ent_EndUser_ContactPhone&lt;br&gt;&lt;span style=&quot;white-space: pre;&quot;&gt;&#x9;&lt;/span&gt;- Text, 30, required, regex ^\+\d{6,15}$" style="text;html=1;strokeColor=none;fillColor=none;align=left;verticalAlign=top;spacingLeft=4;spacingRight=4;whiteSpace=wrap;overflow=hidden;rotatable=0;points=[[0,0.5],[1,0.5]];portConstraint=eastwest;" vertex="1" parent="t3Ei1sCSYDdTLTPBaEXb-44">
          <mxGeometry y="350" width="360" height="40" as="geometry" />
        </mxCell>
        <mxCell id="t3Ei1sCSYDdTLTPBaEXb-56" value="+&amp;nbsp;ent_EndUser_ContactEmail&lt;br&gt;&lt;span style=&quot;white-space: pre;&quot;&gt;&#x9;&lt;/span&gt;- Email, required" style="text;html=1;strokeColor=none;fillColor=none;align=left;verticalAlign=top;spacingLeft=4;spacingRight=4;whiteSpace=wrap;overflow=hidden;rotatable=0;points=[[0,0.5],[1,0.5]];portConstraint=eastwest;" vertex="1" parent="t3Ei1sCSYDdTLTPBaEXb-44">
          <mxGeometry y="390" width="360" height="40" as="geometry" />
        </mxCell>
        <mxCell id="t3Ei1sCSYDdTLTPBaEXb-104" style="edgeStyle=orthogonalEdgeStyle;rounded=0;orthogonalLoop=1;jettySize=auto;html=1;dashed=1;" edge="1" parent="1" source="t3Ei1sCSYDdTLTPBaEXb-57" target="t3Ei1sCSYDdTLTPBaEXb-8">
          <mxGeometry relative="1" as="geometry">
            <Array as="points">
              <mxPoint x="-185" y="1740" />
              <mxPoint x="-1010" y="1740" />
            </Array>
          </mxGeometry>
        </mxCell>
        <mxCell id="t3Ei1sCSYDdTLTPBaEXb-57" value="Process/metadata" style="swimlane;html=1;fontStyle=1;align=center;verticalAlign=top;childLayout=stackLayout;horizontal=1;startSize=26;horizontalStack=0;resizeParent=1;resizeLast=0;collapsible=1;marginBottom=0;swimlaneFillColor=#ffffff;rounded=0;shadow=0;comic=0;labelBackgroundColor=none;strokeWidth=1;fillColor=none;fontFamily=Verdana;fontSize=12" vertex="1" parent="1">
          <mxGeometry x="-330" y="882" width="290" height="228" as="geometry" />
        </mxCell>
        <mxCell id="t3Ei1sCSYDdTLTPBaEXb-58" value="+&amp;nbsp;ent_PrivacyConsent&lt;br&gt;&lt;span style=&quot;white-space: pre;&quot;&gt;&#x9;&lt;/span&gt;-&amp;nbsp;(Two Options, required)" style="text;html=1;strokeColor=none;fillColor=none;align=left;verticalAlign=top;spacingLeft=4;spacingRight=4;whiteSpace=wrap;overflow=hidden;rotatable=0;points=[[0,0.5],[1,0.5]];portConstraint=eastwest;" vertex="1" parent="t3Ei1sCSYDdTLTPBaEXb-57">
          <mxGeometry y="26" width="290" height="44" as="geometry" />
        </mxCell>
        <mxCell id="t3Ei1sCSYDdTLTPBaEXb-66" value="+&amp;nbsp;ent_Status&lt;div&gt;&lt;span style=&quot;white-space: pre;&quot;&gt;&#x9;&lt;/span&gt;-&amp;nbsp;&lt;span style=&quot;background-color: transparent; color: light-dark(rgb(0, 0, 0), rgb(255, 255, 255));&quot;&gt;(Choice, required; values: &lt;/span&gt;&lt;em style=&quot;background-color: transparent; color: light-dark(rgb(0, 0, 0), rgb(255, 255, 255));&quot; data-end=&quot;4024&quot; data-start=&quot;4006&quot;&gt;Draft, Submitted&lt;/em&gt;&lt;span style=&quot;background-color: transparent; color: light-dark(rgb(0, 0, 0), rgb(255, 255, 255));&quot;&gt;)&lt;/span&gt;&lt;br&gt;&lt;/div&gt;" style="text;html=1;strokeColor=none;fillColor=none;align=left;verticalAlign=top;spacingLeft=4;spacingRight=4;whiteSpace=wrap;overflow=hidden;rotatable=0;points=[[0,0.5],[1,0.5]];portConstraint=eastwest;" vertex="1" parent="t3Ei1sCSYDdTLTPBaEXb-57">
          <mxGeometry y="70" width="290" height="44" as="geometry" />
        </mxCell>
        <mxCell id="t3Ei1sCSYDdTLTPBaEXb-67" value="&lt;div&gt;+&amp;nbsp;ent_ReferenceNumber&lt;br&gt;&lt;span style=&quot;white-space: pre;&quot;&gt;&#x9;&lt;/span&gt;-&amp;nbsp;&lt;span style=&quot;background-color: transparent; color: light-dark(rgb(0, 0, 0), rgb(255, 255, 255));&quot;&gt;(Text, 30, required e.g., &lt;/span&gt;&lt;code style=&quot;background-color: transparent; color: light-dark(rgb(0, 0, 0), rgb(255, 255, 255));&quot; data-end=&quot;4099&quot; data-start=&quot;4080&quot;&gt;PRJ-YYYYMMDD-####&lt;/code&gt;&lt;span style=&quot;background-color: transparent; color: light-dark(rgb(0, 0, 0), rgb(255, 255, 255));&quot;&gt;)&lt;/span&gt;&lt;br&gt;&lt;/div&gt;" style="text;html=1;strokeColor=none;fillColor=none;align=left;verticalAlign=top;spacingLeft=4;spacingRight=4;whiteSpace=wrap;overflow=hidden;rotatable=0;points=[[0,0.5],[1,0.5]];portConstraint=eastwest;" vertex="1" parent="t3Ei1sCSYDdTLTPBaEXb-57">
          <mxGeometry y="114" width="290" height="44" as="geometry" />
        </mxCell>
        <mxCell id="t3Ei1sCSYDdTLTPBaEXb-68" value="&lt;div&gt;+&amp;nbsp;ent_SubmittedOn&lt;/div&gt;&lt;div&gt;&lt;span style=&quot;white-space: pre;&quot;&gt;&#x9;&lt;/span&gt;-&amp;nbsp;(DateTime, required on submit)&lt;br&gt;&lt;/div&gt;" style="text;html=1;strokeColor=none;fillColor=none;align=left;verticalAlign=top;spacingLeft=4;spacingRight=4;whiteSpace=wrap;overflow=hidden;rotatable=0;points=[[0,0.5],[1,0.5]];portConstraint=eastwest;" vertex="1" parent="t3Ei1sCSYDdTLTPBaEXb-57">
          <mxGeometry y="158" width="290" height="44" as="geometry" />
        </mxCell>
        <mxCell id="t3Ei1sCSYDdTLTPBaEXb-101" style="edgeStyle=orthogonalEdgeStyle;rounded=0;orthogonalLoop=1;jettySize=auto;html=1;fillColor=#dae8fc;strokeColor=#6c8ebf;" edge="1" parent="1" source="t3Ei1sCSYDdTLTPBaEXb-80" target="t3Ei1sCSYDdTLTPBaEXb-10">
          <mxGeometry relative="1" as="geometry" />
        </mxCell>
        <mxCell id="t3Ei1sCSYDdTLTPBaEXb-80" value="ent_DealLine" style="swimlane;html=1;fontStyle=1;align=center;verticalAlign=top;childLayout=stackLayout;horizontal=1;startSize=26;horizontalStack=0;resizeParent=1;resizeLast=0;collapsible=1;marginBottom=0;swimlaneFillColor=#ffffff;rounded=0;shadow=0;comic=0;labelBackgroundColor=none;strokeWidth=1;fillColor=none;fontFamily=Verdana;fontSize=12" vertex="1" parent="1">
          <mxGeometry x="-810" y="1790" width="290" height="228" as="geometry" />
        </mxCell>
        <mxCell id="t3Ei1sCSYDdTLTPBaEXb-81" value="+ ent_EnterpriseProduct&lt;div&gt;&lt;span style=&quot;white-space: pre;&quot;&gt;&#x9;&lt;/span&gt;-&amp;nbsp;&lt;span style=&quot;background-color: transparent; color: light-dark(rgb(0, 0, 0), rgb(255, 255, 255));&quot;&gt;(Choice, required; &lt;/span&gt;&lt;strong style=&quot;background-color: transparent; color: light-dark(rgb(0, 0, 0), rgb(255, 255, 255));&quot; data-end=&quot;4392&quot; data-start=&quot;4377&quot;&gt;closed list&lt;/strong&gt;&lt;span style=&quot;background-color: transparent; color: light-dark(rgb(0, 0, 0), rgb(255, 255, 255));&quot;&gt; below)&lt;/span&gt;&lt;br&gt;&lt;/div&gt;" style="text;html=1;strokeColor=none;fillColor=none;align=left;verticalAlign=top;spacingLeft=4;spacingRight=4;whiteSpace=wrap;overflow=hidden;rotatable=0;points=[[0,0.5],[1,0.5]];portConstraint=eastwest;" vertex="1" parent="t3Ei1sCSYDdTLTPBaEXb-80">
          <mxGeometry y="26" width="290" height="44" as="geometry" />
        </mxCell>
        <mxCell id="t3Ei1sCSYDdTLTPBaEXb-82" value="&lt;div&gt;+&amp;nbsp;ent_Quantity&lt;/div&gt;&lt;div&gt;&lt;span style=&quot;white-space: pre;&quot;&gt;&#x9;&lt;/span&gt;-&amp;nbsp;&lt;span style=&quot;background-color: transparent; color: light-dark(rgb(0, 0, 0), rgb(255, 255, 255));&quot;&gt;(Whole Number, required, &lt;/span&gt;&lt;code style=&quot;background-color: transparent; color: light-dark(rgb(0, 0, 0), rgb(255, 255, 255));&quot; data-end=&quot;4452&quot; data-start=&quot;4446&quot;&gt;&amp;gt;= 1&lt;/code&gt;&lt;span style=&quot;background-color: transparent; color: light-dark(rgb(0, 0, 0), rgb(255, 255, 255));&quot;&gt;)&lt;/span&gt;&lt;br&gt;&lt;/div&gt;" style="text;html=1;strokeColor=none;fillColor=none;align=left;verticalAlign=top;spacingLeft=4;spacingRight=4;whiteSpace=wrap;overflow=hidden;rotatable=0;points=[[0,0.5],[1,0.5]];portConstraint=eastwest;" vertex="1" parent="t3Ei1sCSYDdTLTPBaEXb-80">
          <mxGeometry y="70" width="290" height="44" as="geometry" />
        </mxCell>
        <mxCell id="t3Ei1sCSYDdTLTPBaEXb-83" value="&lt;div&gt;+&amp;nbsp;ent_EstimatedSalesDate&lt;/div&gt;&lt;div&gt;&lt;span style=&quot;white-space: pre;&quot;&gt;&#x9;&lt;/span&gt;-&amp;nbsp;(Date, required, must be today or future)&lt;br&gt;&lt;/div&gt;" style="text;html=1;strokeColor=none;fillColor=none;align=left;verticalAlign=top;spacingLeft=4;spacingRight=4;whiteSpace=wrap;overflow=hidden;rotatable=0;points=[[0,0.5],[1,0.5]];portConstraint=eastwest;" vertex="1" parent="t3Ei1sCSYDdTLTPBaEXb-80">
          <mxGeometry y="114" width="290" height="44" as="geometry" />
        </mxCell>
        <mxCell id="t3Ei1sCSYDdTLTPBaEXb-84" value="&lt;div&gt;+&amp;nbsp;ent_ProjectScopeDescription&lt;/div&gt;&lt;div&gt;&amp;nbsp;&lt;span style=&quot;white-space: pre;&quot;&gt;&#x9;&lt;/span&gt;-&amp;nbsp;(Multiline Text, 1000, required)&lt;/div&gt;" style="text;html=1;strokeColor=none;fillColor=none;align=left;verticalAlign=top;spacingLeft=4;spacingRight=4;whiteSpace=wrap;overflow=hidden;rotatable=0;points=[[0,0.5],[1,0.5]];portConstraint=eastwest;" vertex="1" parent="t3Ei1sCSYDdTLTPBaEXb-80">
          <mxGeometry y="158" width="290" height="44" as="geometry" />
        </mxCell>
        <mxCell id="t3Ei1sCSYDdTLTPBaEXb-86" value="&lt;strong data-end=&quot;4636&quot; data-start=&quot;4597&quot;&gt;Enterprise Product (Choice values):&lt;/strong&gt;" style="swimlane;html=1;fontStyle=1;align=center;verticalAlign=top;childLayout=stackLayout;horizontal=1;startSize=26;horizontalStack=0;resizeParent=1;resizeLast=0;collapsible=1;marginBottom=0;swimlaneFillColor=#ffffff;rounded=0;shadow=0;comic=0;labelBackgroundColor=none;strokeWidth=1;fillColor=none;fontFamily=Verdana;fontSize=12" vertex="1" parent="1">
          <mxGeometry x="-350" y="1828" width="320" height="190" as="geometry" />
        </mxCell>
        <mxCell id="t3Ei1sCSYDdTLTPBaEXb-87" value="&lt;p data-end=&quot;4813&quot; data-start=&quot;4597&quot;&gt;&lt;code data-end=&quot;4813&quot; data-start=&quot;4639&quot;&gt;EFG, ENVR, ECS-Aggregation, UXG-Enterprise, E7, ECS-24-POE, ECS-48-POE, E7-Campus, E7-AUDIENCE, UVC-G6-DOME-W, UVC-G6-DOME-B, UVC-AI-PTZ-PRECISION-B, UVC-AI-PTZ-PRECISION-W&lt;/code&gt;&lt;/p&gt;&lt;br/&gt;&lt;h2 data-end=&quot;4842&quot; data-start=&quot;4815&quot;&gt;&lt;/h2&gt;" style="text;html=1;strokeColor=none;fillColor=none;align=left;verticalAlign=top;spacingLeft=4;spacingRight=4;whiteSpace=wrap;overflow=hidden;rotatable=0;points=[[0,0.5],[1,0.5]];portConstraint=eastwest;" vertex="1" parent="t3Ei1sCSYDdTLTPBaEXb-86">
          <mxGeometry y="26" width="320" height="154" as="geometry" />
        </mxCell>
        <mxCell id="t3Ei1sCSYDdTLTPBaEXb-93" style="edgeStyle=orthogonalEdgeStyle;rounded=0;orthogonalLoop=1;jettySize=auto;html=1;exitX=1;exitY=0.5;exitDx=0;exitDy=0;entryX=0;entryY=0.5;entryDx=0;entryDy=0;dashed=1;" edge="1" parent="1" source="t3Ei1sCSYDdTLTPBaEXb-81" target="t3Ei1sCSYDdTLTPBaEXb-86">
          <mxGeometry relative="1" as="geometry">
            <Array as="points">
              <mxPoint x="-410" y="1838" />
              <mxPoint x="-410" y="1923" />
            </Array>
          </mxGeometry>
        </mxCell>
        <mxCell id="t3Ei1sCSYDdTLTPBaEXb-94" style="edgeStyle=orthogonalEdgeStyle;rounded=0;orthogonalLoop=1;jettySize=auto;html=1;entryX=0.546;entryY=0.017;entryDx=0;entryDy=0;entryPerimeter=0;" edge="1" parent="1" source="t3Ei1sCSYDdTLTPBaEXb-15" target="t3Ei1sCSYDdTLTPBaEXb-4">
          <mxGeometry relative="1" as="geometry">
            <Array as="points">
              <mxPoint x="-695" y="400" />
              <mxPoint x="-983" y="400" />
            </Array>
          </mxGeometry>
        </mxCell>
        <mxCell id="t3Ei1sCSYDdTLTPBaEXb-98" style="edgeStyle=orthogonalEdgeStyle;rounded=0;orthogonalLoop=1;jettySize=auto;html=1;dashed=1;" edge="1" parent="1" source="t3Ei1sCSYDdTLTPBaEXb-7" target="t3Ei1sCSYDdTLTPBaEXb-44">
          <mxGeometry relative="1" as="geometry" />
        </mxCell>
        <mxCell id="t3Ei1sCSYDdTLTPBaEXb-102" style="edgeStyle=orthogonalEdgeStyle;rounded=0;orthogonalLoop=1;jettySize=auto;html=1;entryX=0;entryY=0.5;entryDx=0;entryDy=0;fillColor=#f8cecc;strokeColor=#b85450;" edge="1" parent="1" source="t3Ei1sCSYDdTLTPBaEXb-35" target="t3Ei1sCSYDdTLTPBaEXb-66">
          <mxGeometry relative="1" as="geometry" />
        </mxCell>
        <mxCell id="t3Ei1sCSYDdTLTPBaEXb-103" style="edgeStyle=orthogonalEdgeStyle;rounded=0;orthogonalLoop=1;jettySize=auto;html=1;entryX=0;entryY=0.5;entryDx=0;entryDy=0;fillColor=#f8cecc;strokeColor=#b85450;" edge="1" parent="1" source="t3Ei1sCSYDdTLTPBaEXb-49" target="t3Ei1sCSYDdTLTPBaEXb-66">
          <mxGeometry relative="1" as="geometry" />
        </mxCell>
        <mxCell id="t3Ei1sCSYDdTLTPBaEXb-105" style="edgeStyle=orthogonalEdgeStyle;rounded=0;orthogonalLoop=1;jettySize=auto;html=1;" edge="1" parent="1" source="t3Ei1sCSYDdTLTPBaEXb-87" target="t3Ei1sCSYDdTLTPBaEXb-82">
          <mxGeometry relative="1" as="geometry" />
        </mxCell>
        <mxCell id="t3Ei1sCSYDdTLTPBaEXb-106" value="ent_SendCopyToSpecific" style="swimlane;html=1;fontStyle=1;align=center;verticalAlign=top;childLayout=stackLayout;horizontal=1;startSize=26;horizontalStack=0;resizeParent=1;resizeLast=0;collapsible=1;marginBottom=0;swimlaneFillColor=#ffffff;rounded=0;shadow=0;comic=0;labelBackgroundColor=none;strokeWidth=1;fillColor=none;fontFamily=Verdana;fontSize=12" vertex="1" parent="1">
          <mxGeometry x="-510" y="2230" width="290" height="70" as="geometry" />
        </mxCell>
        <mxCell id="t3Ei1sCSYDdTLTPBaEXb-107" value="+&amp;nbsp;ent_SpecificRecipientEmail&lt;br&gt;&lt;span style=&quot;white-space: pre;&quot;&gt;&#x9;&lt;/span&gt;- compose xslx" style="text;html=1;strokeColor=none;fillColor=none;align=left;verticalAlign=top;spacingLeft=4;spacingRight=4;whiteSpace=wrap;overflow=hidden;rotatable=0;points=[[0,0.5],[1,0.5]];portConstraint=eastwest;" vertex="1" parent="t3Ei1sCSYDdTLTPBaEXb-106">
          <mxGeometry y="26" width="290" height="34" as="geometry" />
        </mxCell>
        <mxCell id="t3Ei1sCSYDdTLTPBaEXb-108" style="edgeStyle=orthogonalEdgeStyle;rounded=0;orthogonalLoop=1;jettySize=auto;html=1;entryX=0;entryY=0.5;entryDx=0;entryDy=0;dashed=1;" edge="1" parent="1" source="t3Ei1sCSYDdTLTPBaEXb-11" target="t3Ei1sCSYDdTLTPBaEXb-107">
          <mxGeometry relative="1" as="geometry" />
        </mxCell>
      </root>
    </mxGraphModel>
  </diagram>
</mxfile>
